<?xml version="1.0" standalone="no"?>
<!DOCTYPE svg PUBLIC "-//W3C//DTD SVG 20010904//EN"
 "http://www.w3.org/TR/2001/REC-SVG-20010904/DTD/svg10.dtd">
<svg version="1.0" xmlns="http://www.w3.org/2000/svg"
 width="512.000000pt" height="512.000000pt" viewBox="0 0 512.000000 512.000000"
 preserveAspectRatio="xMidYMid meet">

<g transform="translate(0.000000,512.000000) scale(0.100000,-0.100000)"
fill="#000000" stroke="none">
<path d="M1890 5105 c-153 -34 -306 -141 -394 -274 -57 -86 -77 -101 -141
-101 -234 -1 -435 -151 -499 -372 l-17 -55 -50 -6 c-103 -13 -207 -80 -268
-175 -45 -71 -61 -147 -61 -297 -1 -149 -4 -160 -76 -213 -63 -48 -136 -145
-165 -219 -18 -47 -22 -78 -23 -163 0 -58 3 -137 8 -176 l9 -71 -66 -72 c-174
-189 -194 -432 -53 -641 60 -88 62 -103 32 -199 -17 -53 -26 -105 -26 -146 0
-57 3 -66 26 -84 34 -27 57 -26 89 2 20 17 27 36 34 87 4 36 19 100 32 143 31
103 20 159 -51 265 -62 91 -84 163 -77 248 6 82 44 161 110 232 29 31 60 69
69 83 15 23 25 27 93 32 95 7 186 47 249 110 50 51 86 114 86 152 0 36 -33 65
-75 65 -30 0 -39 -7 -75 -54 -64 -87 -129 -126 -211 -126 -36 0 -39 2 -50 43
-6 23 -9 74 -7 113 6 95 42 171 109 232 150 136 151 138 159 352 6 177 17 217
72 266 25 24 81 54 98 54 6 0 10 -29 10 -75 0 -179 98 -288 291 -324 152 -29
209 -94 209 -239 0 -95 16 -122 73 -122 59 0 72 26 72 141 l0 99 56 0 c42 0
63 5 83 21 34 27 36 77 3 107 -21 20 -34 22 -121 22 -94 0 -100 1 -136 30 -52
41 -112 67 -201 85 -88 19 -126 39 -157 86 -22 31 -23 43 -20 125 3 62 9 99
20 116 9 14 24 54 33 89 44 170 159 261 351 277 144 13 193 43 278 174 84 128
249 218 401 218 69 0 168 -25 229 -58 74 -39 167 -137 205 -213 51 -105 61
-174 61 -453 l0 -248 -27 6 c-16 4 -67 10 -114 13 -109 7 -167 -9 -274 -77
-111 -70 -149 -67 -242 21 -59 56 -91 62 -128 24 -32 -31 -31 -63 3 -107 85
-112 223 -162 340 -124 27 9 74 34 104 55 29 21 71 44 92 51 48 16 157 8 209
-14 l37 -16 0 -1259 0 -1258 -62 -28 c-119 -53 -214 -47 -313 21 -108 74 -180
90 -277 60 -92 -27 -198 -126 -198 -183 0 -32 42 -73 76 -73 19 0 38 12 63 39
88 95 145 103 247 36 148 -98 252 -109 442 -50 l22 7 0 -258 c0 -290 -9 -357
-61 -463 -38 -76 -131 -174 -205 -213 -61 -33 -160 -58 -229 -58 -152 0 -317
90 -401 218 -85 131 -133 161 -279 174 -123 10 -203 45 -264 114 -109 124
-111 247 -5 364 43 47 84 70 166 94 34 10 62 24 68 36 16 30 12 68 -11 91 -19
19 -30 21 -79 16 -122 -11 -262 -113 -324 -235 -26 -52 -27 -52 -74 -52 -90 1
-179 65 -201 147 -6 21 -11 88 -11 148 0 182 -30 243 -156 320 -44 26 -96 63
-117 81 -21 20 -48 34 -62 34 -33 0 -75 -42 -75 -75 0 -37 65 -103 153 -155
101 -59 107 -71 107 -219 0 -139 20 -217 73 -287 64 -84 172 -143 264 -144
l42 0 16 -57 c24 -82 57 -141 112 -203 91 -101 204 -154 354 -166 46 -3 94
-13 107 -21 13 -8 39 -40 59 -71 88 -139 253 -255 408 -287 282 -59 567 81
697 342 25 50 49 109 53 132 4 22 10 41 14 41 4 0 54 -7 112 -16 140 -22 427
-22 574 0 1221 184 2011 1367 1709 2558 -86 341 -261 655 -509 916 -110 116
-277 252 -309 252 -39 0 -76 -37 -76 -75 0 -31 10 -42 115 -130 334 -280 554
-643 649 -1066 230 -1034 -441 -2068 -1481 -2284 -224 -47 -493 -52 -710 -14
l-63 11 0 205 c0 178 2 204 15 199 67 -25 204 -40 370 -40 199 0 298 14 333
47 27 25 29 67 3 98 -21 26 -41 28 -171 10 -151 -20 -322 -11 -482 25 l-68 16
0 1318 0 1318 68 16 c279 63 562 40 828 -65 173 -69 323 -170 463 -312 183
-185 309 -418 366 -677 25 -114 31 -364 12 -485 -71 -446 -337 -814 -734
-1016 -116 -59 -133 -73 -133 -111 0 -34 39 -78 69 -78 11 0 69 25 129 55 361
181 640 505 760 885 58 183 67 246 67 470 0 178 -3 219 -23 309 -136 608 -585
1052 -1196 1183 -142 30 -435 31 -578 1 l-98 -20 0 203 0 202 63 11 c378 68
831 1 1178 -174 27 -14 62 -25 79 -25 52 0 84 52 64 105 -8 20 -169 101 -287
144 -333 122 -724 157 -1078 95 -37 -6 -37 -6 -44 36 -11 67 -88 209 -150 277
-117 130 -273 203 -445 209 -59 2 -119 -2 -160 -11z"/>
<path d="M1965 3345 c-22 -21 -25 -33 -25 -93 0 -254 -179 -437 -514 -522
-144 -37 -223 -77 -299 -152 -82 -81 -157 -250 -157 -354 0 -31 -1 -31 -65
-42 -36 -6 -86 -21 -111 -33 -53 -27 -120 -96 -130 -134 -10 -39 23 -79 69
-83 30 -3 41 2 69 33 37 41 67 59 117 70 41 9 51 -3 51 -60 1 -101 83 -420
121 -468 27 -35 76 -37 107 -4 29 30 28 45 -8 150 -54 158 -73 275 -73 442 0
125 3 160 20 212 46 140 122 215 264 258 46 15 132 42 191 61 59 19 109 34
111 34 3 0 8 -15 11 -32 11 -59 64 -156 110 -202 54 -55 122 -90 204 -107 73
-15 109 -6 131 33 14 24 14 30 -1 61 -13 27 -25 37 -50 41 -99 19 -124 31
-173 80 -36 36 -56 67 -68 105 -29 91 -25 104 52 186 112 120 171 266 171 423
0 64 -3 76 -25 97 -13 14 -36 25 -50 25 -14 0 -37 -11 -50 -25z"/>
<path d="M3024 3309 c-34 -12 -54 -49 -54 -99 0 -45 0 -45 -48 -62 -70 -25
-126 -78 -164 -155 -28 -57 -32 -77 -32 -137 1 -122 51 -194 184 -265 l60 -32
0 -225 0 -226 -32 7 c-18 3 -59 19 -91 36 -72 37 -109 38 -136 3 -12 -15 -21
-34 -21 -44 0 -50 106 -118 218 -140 l62 -13 0 -48 c0 -88 75 -134 130 -79 15
15 20 33 20 78 l0 57 43 13 c99 30 195 127 232 232 21 60 21 168 -1 233 -26
77 -107 155 -201 192 l-73 28 0 174 c0 198 -1 195 81 142 55 -35 98 -34 124 4
44 63 -26 140 -163 176 -42 12 -42 12 -42 57 0 25 -4 54 -10 64 -13 23 -59 39
-86 29z m-54 -445 c0 -105 -3 -134 -12 -128 -75 43 -98 90 -79 161 11 41 59
103 80 103 7 0 11 -44 11 -136z m205 -387 c60 -34 85 -78 85 -149 0 -84 -43
-158 -112 -194 l-28 -15 0 191 c0 104 3 190 8 190 4 0 25 -10 47 -23z"/>
</g>
</svg>
