<svg width="44" height="44" viewBox="0 0 44 44" fill="none" xmlns="http://www.w3.org/2000/svg">
<path d="M16.2422 0.128864C14.9274 0.421055 13.6125 1.34058 12.8563 2.48355C12.3664 3.22261 12.1946 3.35152 11.6446 3.35152C9.63364 3.36012 7.90629 4.64918 7.35629 6.5484L7.2102 7.02105L6.78051 7.07262C5.89536 7.18433 5.00161 7.76012 4.47739 8.57652C4.09067 9.18668 3.95317 9.83981 3.95317 11.1289C3.94457 12.4093 3.91879 12.5039 3.30004 12.9593C2.75864 13.3718 2.13129 14.2054 1.88207 14.8414C1.72739 15.2453 1.69301 15.5117 1.68442 16.2421C1.68442 16.7406 1.7102 17.4195 1.75317 17.7546L1.83051 18.3648L1.26333 18.9836C-0.231987 20.6078 -0.403862 22.6961 0.807856 24.4921C1.32348 25.2484 1.34067 25.3773 1.08286 26.2023C0.936763 26.6578 0.859419 27.1046 0.859419 27.457C0.859419 27.9468 0.8852 28.0242 1.08286 28.1789C1.37504 28.4109 1.5727 28.4023 1.8477 28.1617C2.01957 28.0156 2.07973 27.8523 2.13989 27.414C2.17426 27.1046 2.30317 26.5546 2.41489 26.1851C2.68129 25.3 2.58676 24.8187 1.97661 23.9078C1.44379 23.1257 1.25473 22.507 1.31489 21.7765C1.36645 21.0718 1.69301 20.3929 2.2602 19.7828C2.50942 19.5164 2.77583 19.1898 2.85317 19.0695C2.98207 18.8718 3.06801 18.8375 3.65239 18.7945C4.46879 18.7343 5.25082 18.3906 5.79223 17.8492C6.22192 17.4109 6.53129 16.8695 6.53129 16.5429C6.53129 16.2336 6.2477 15.9843 5.88676 15.9843C5.62895 15.9843 5.55161 16.0445 5.24223 16.4484C4.69223 17.1961 4.13364 17.5312 3.42895 17.5312C3.11957 17.5312 3.09379 17.514 2.99926 17.1617C2.9477 16.964 2.92192 16.5257 2.93911 16.1906C2.99067 15.3742 3.30004 14.7211 3.87582 14.1968C5.16489 13.0281 5.17348 13.0109 5.24223 11.1718C5.29379 9.65074 5.38832 9.30699 5.86098 8.8859C6.07582 8.67965 6.55707 8.42183 6.70317 8.42183C6.75473 8.42183 6.78911 8.67105 6.78911 9.06637C6.78911 10.6046 7.63129 11.5414 9.28989 11.8507C10.5961 12.1 11.086 12.6586 11.086 13.9046C11.086 14.7211 11.2235 14.9531 11.7133 14.9531C12.2204 14.9531 12.3321 14.7296 12.3321 13.7414V12.8906H12.8133C13.1743 12.8906 13.3547 12.8476 13.5266 12.7101C13.8188 12.4781 13.836 12.0484 13.5524 11.7906C13.3719 11.6187 13.2602 11.6015 12.5125 11.6015C11.7047 11.6015 11.6532 11.5929 11.3438 11.3437C10.8969 10.9914 10.3813 10.7679 9.61645 10.6132C8.8602 10.45 8.53364 10.2781 8.26723 9.87418C8.07817 9.60777 8.06957 9.50465 8.09536 8.79996C8.12114 8.26715 8.1727 7.94918 8.26723 7.80309C8.34457 7.68277 8.47348 7.33902 8.55082 7.03824C8.92895 5.5773 9.91723 4.79527 11.5672 4.65777C12.8047 4.54605 13.2258 4.28824 13.9563 3.16246C14.6782 2.06246 16.0961 1.28902 17.4024 1.28902C17.9954 1.28902 18.8461 1.50386 19.3704 1.78746C20.0063 2.12262 20.8055 2.9648 21.1321 3.61793C21.5704 4.52027 21.6563 5.11324 21.6563 7.5109V9.64215L21.4243 9.59058C21.2868 9.55621 20.8485 9.50465 20.4446 9.47887C19.5079 9.41871 19.0094 9.55621 18.0899 10.1406C17.136 10.7421 16.8094 10.7164 16.0102 9.96012C15.5032 9.47887 15.2282 9.4273 14.9102 9.75387C14.6352 10.0203 14.6438 10.2953 14.936 10.6734C15.6664 11.6359 16.8524 12.0656 17.8579 11.739C18.0899 11.6617 18.4938 11.4468 18.7516 11.2664C19.0008 11.0859 19.3618 10.8882 19.5422 10.8281C19.9547 10.6906 20.8914 10.7593 21.3383 10.9484L21.6563 11.0859V21.9054V32.7164L21.1235 32.957C20.1008 33.4125 19.2844 33.3609 18.4336 32.7765C17.5055 32.1406 16.8868 32.0031 16.0532 32.2609C15.2625 32.4929 14.3516 33.3437 14.3516 33.8336C14.3516 34.1086 14.7125 34.4609 15.0047 34.4609C15.168 34.4609 15.3313 34.3578 15.5461 34.1257C16.3024 33.3093 16.7922 33.2406 17.6688 33.8164C18.9407 34.6586 19.8344 34.7531 21.4672 34.2461L21.6563 34.1859V36.4031C21.6563 38.8953 21.5789 39.4711 21.1321 40.382C20.8055 41.0351 20.0063 41.8773 19.3704 42.2125C18.8461 42.4961 17.9954 42.7109 17.4024 42.7109C16.0961 42.7109 14.6782 41.9375 13.9563 40.8375C13.2258 39.7117 12.8133 39.4539 11.5586 39.3421C10.5016 39.2562 9.81411 38.9554 9.28989 38.3625C8.35317 37.2968 8.33598 36.2398 9.24692 35.2343C9.61645 34.8304 9.96879 34.6328 10.6735 34.4265C10.9657 34.3406 11.2063 34.2203 11.2579 34.1171C11.3954 33.8593 11.361 33.5328 11.1633 33.3351C11 33.1718 10.9055 33.1546 10.4844 33.1976C9.43598 33.2921 8.23286 34.1687 7.70004 35.2171C7.47661 35.664 7.46801 35.664 7.06411 35.664C6.29067 35.6554 5.52582 35.1054 5.33676 34.4007C5.2852 34.2203 5.24223 33.6445 5.24223 33.1289C5.24223 31.5648 4.98442 31.0406 3.90161 30.3789C3.52348 30.1554 3.07661 29.8375 2.89614 29.6828C2.71567 29.5109 2.48364 29.3906 2.36332 29.3906C2.07973 29.3906 1.71879 29.7515 1.71879 30.0351C1.71879 30.3531 2.27739 30.9203 3.03364 31.3671C3.90161 31.8742 3.95317 31.9773 3.95317 33.2492C3.95317 34.4437 4.12504 35.114 4.58051 35.7156C5.13051 36.4375 6.05864 36.9445 6.84926 36.9531H7.2102L7.3477 37.4429C7.55395 38.1476 7.83754 38.6546 8.3102 39.1875C9.09223 40.0554 10.0633 40.5109 11.3524 40.614C11.7477 40.6398 12.1602 40.7257 12.2719 40.7945C12.3836 40.8632 12.6071 41.1382 12.7789 41.4046C13.5352 42.5992 14.9532 43.5961 16.2852 43.8711C18.7086 44.3781 21.1579 43.175 22.275 40.932C22.4899 40.5023 22.6961 39.9953 22.7305 39.7976C22.7649 39.6086 22.8164 39.4453 22.8508 39.4453C22.8852 39.4453 23.3149 39.5054 23.8133 39.5828C25.0164 39.7718 27.4829 39.7718 28.7461 39.5828C39.2391 38.0015 46.0282 27.8351 43.4328 17.6C42.6938 14.6695 41.1899 11.9711 39.0586 9.72808C38.1133 8.73121 36.6782 7.56246 36.4032 7.56246C36.068 7.56246 35.75 7.88043 35.75 8.20699C35.75 8.4734 35.836 8.56793 36.7383 9.32418C39.6086 11.7304 41.4993 14.85 42.3157 18.4851C44.2922 27.3711 38.5258 36.257 29.5883 38.1132C27.6633 38.5171 25.3516 38.5601 23.4868 38.2336L22.9454 38.139V36.3773C22.9454 34.8476 22.9625 34.6242 23.0743 34.6671C23.65 34.882 24.8274 35.0109 26.2539 35.0109C27.9641 35.0109 28.8149 34.8906 29.1157 34.607C29.3477 34.3921 29.3649 34.0312 29.1414 33.7648C28.961 33.5414 28.7891 33.5242 27.6719 33.6789C26.3743 33.8507 24.9047 33.7734 23.5297 33.464L22.9454 33.3265V22V10.6734L23.5297 10.5359C25.9274 9.99449 28.3594 10.1921 30.6454 11.0945C32.1321 11.6875 33.4211 12.5554 34.6243 13.7757C36.1969 15.3656 37.2797 17.3679 37.7696 19.5937C37.9844 20.5734 38.036 22.7218 37.8727 23.7617C37.2625 27.5945 34.9766 30.757 31.5649 32.4929C30.568 33 30.4219 33.1203 30.4219 33.4468C30.4219 33.739 30.7571 34.1171 31.0149 34.1171C31.1094 34.1171 31.6079 33.9023 32.1235 33.6445C35.2258 32.089 37.6235 29.3046 38.6547 26.039C39.1532 24.4664 39.2305 23.925 39.2305 22C39.2305 20.4703 39.2047 20.1179 39.0329 19.3445C37.8641 14.1195 34.0055 10.3039 28.7547 9.17809C27.5344 8.92027 25.0164 8.91168 23.7875 9.16949L22.9454 9.34137V7.59684V5.8609L23.4868 5.76637C26.7352 5.18199 30.6282 5.75777 33.6102 7.26168C33.8422 7.38199 34.143 7.47652 34.2891 7.47652C34.736 7.47652 35.011 7.02965 34.8391 6.57418C34.7704 6.4023 33.3868 5.70621 32.3727 5.33668C29.511 4.28824 26.1508 3.98746 23.1086 4.52027C22.7907 4.57183 22.7907 4.57183 22.7305 4.2109C22.636 3.63512 21.9743 2.4148 21.4414 1.83043C20.436 0.713242 19.0954 0.0858955 17.6172 0.0343361C17.1102 0.0171471 16.5946 0.0515213 16.2422 0.128864Z" fill="white"/>
<path d="M16.8868 15.2538C16.6977 15.4343 16.672 15.5374 16.672 16.053C16.672 18.2359 15.1337 19.8085 12.2548 20.539C11.0173 20.8569 10.3384 21.2007 9.68525 21.8452C8.98056 22.5413 8.33603 23.9937 8.33603 24.8874C8.33603 25.1538 8.32743 25.1538 7.77743 25.2484C7.46806 25.2999 7.03837 25.4288 6.82353 25.5319C6.36806 25.764 5.79228 26.3569 5.70634 26.6835C5.6204 27.0187 5.904 27.3624 6.29931 27.3968C6.55712 27.4226 6.65165 27.3796 6.89228 27.1132C7.21025 26.7609 7.46806 26.6062 7.89775 26.5116C8.25009 26.4343 8.33603 26.5374 8.33603 27.0273C8.34462 27.8952 9.04931 30.6366 9.37587 31.0491C9.6079 31.3499 10.029 31.3671 10.2954 31.0835C10.5446 30.8257 10.536 30.6968 10.2267 29.7944C9.76259 28.4366 9.59931 27.4312 9.59931 25.996C9.59931 24.9218 9.62509 24.621 9.77118 24.1741C10.1665 22.971 10.8196 22.3265 12.0399 21.9569C12.4352 21.828 13.1743 21.596 13.6813 21.4327C14.1884 21.2694 14.6181 21.1405 14.6352 21.1405C14.661 21.1405 14.704 21.2694 14.7298 21.4155C14.8243 21.9226 15.2798 22.7562 15.6751 23.1515C16.1392 23.6241 16.7235 23.9249 17.4282 24.071C18.0556 24.1999 18.3649 24.1226 18.554 23.7874C18.6743 23.5812 18.6743 23.5296 18.5454 23.2632C18.4337 23.0312 18.3306 22.9452 18.1157 22.9109C17.2649 22.7476 17.0501 22.6444 16.629 22.2234C16.3196 21.914 16.1477 21.6476 16.0446 21.321C15.7954 20.539 15.8298 20.4273 16.4915 19.7226C17.454 18.6913 17.961 17.4366 17.961 16.0874C17.961 15.5374 17.9352 15.4343 17.7462 15.2538C17.6345 15.1335 17.4368 15.039 17.3165 15.039C17.1962 15.039 16.9985 15.1335 16.8868 15.2538Z" fill="white"/>
<path d="M25.9875 15.5633C25.6953 15.6664 25.5234 15.9844 25.5234 16.414C25.5234 16.8008 25.5234 16.8008 25.1109 16.9469C24.5094 17.1617 24.0281 17.6172 23.7016 18.2789C23.4609 18.7687 23.4266 18.9406 23.4266 19.4562C23.4352 20.5047 23.8648 21.1234 25.0078 21.7336L25.5234 22.0086V23.9422V25.8844L25.2484 25.8242C25.0938 25.7984 24.7414 25.6609 24.4664 25.5148C23.8477 25.1969 23.5297 25.1883 23.2977 25.489C23.1945 25.6179 23.1172 25.7812 23.1172 25.8672C23.1172 26.2969 24.0281 26.8812 24.9906 27.0703L25.5234 27.182V27.5945C25.5234 28.3508 26.168 28.7461 26.6406 28.2734C26.7695 28.1445 26.8125 27.9898 26.8125 27.6031V27.1133L27.182 27.0015C28.0328 26.7437 28.8578 25.9101 29.1758 25.0078C29.3563 24.4922 29.3563 23.564 29.1672 23.0054C28.9438 22.3437 28.2477 21.6734 27.4398 21.3554L26.8125 21.1148V19.6195C26.8125 17.9179 26.8039 17.9437 27.5086 18.3992C27.9813 18.7 28.3508 18.6914 28.5742 18.3648C28.9523 17.8234 28.3508 17.1617 27.1734 16.8523C26.8125 16.7492 26.8125 16.7492 26.8125 16.3625C26.8125 16.1476 26.7781 15.8984 26.7266 15.8125C26.6148 15.6148 26.2195 15.4773 25.9875 15.5633ZM25.5234 19.3875C25.5234 20.2898 25.4977 20.539 25.4203 20.4875C24.7758 20.1179 24.5781 19.714 24.7414 19.1039C24.8359 18.7515 25.2484 18.2187 25.4289 18.2187C25.4891 18.2187 25.5234 18.5969 25.5234 19.3875ZM27.2852 22.7133C27.8008 23.0054 28.0156 23.3836 28.0156 23.9937C28.0156 24.7156 27.6461 25.3515 27.0531 25.6609L26.8125 25.7898V24.1484C26.8125 23.2547 26.8383 22.5156 26.8813 22.5156C26.9156 22.5156 27.0961 22.6015 27.2852 22.7133Z" fill="white"/>
</svg>
